{
  "accessors": [
    {
      "bufferView": 2,
      "componentType": 5126,
      "count": 65532,
      "max": [
        2.2754790782928467,
        10.850774765014648,
        0.46930500864982605
      ],
      "min": [
        -2.2706921100616455,
        7.777187824249268,
        -1.9861949682235718
      ],
      "type": "VEC3"
    },
    {
      "bufferView": 2,
      "byteOffset": 786384,
      "componentType": 5126,
      "count": 65532,
      "max": [
        0.9999961853027344,
        0.9999828934669495,
        0.9999812841415405
      ],
      "min": [
        -0.9999815821647644,
        -0.999989926815033,
        -0.999993622303009
      ],
      "type": "VEC3"
    },
    {
      "bufferView": 1,
      "componentType": 5126,
      "count": 65532,
      "max": [
        0.9999619722366333,
        0.9990109801292419
      ],
      "min": [
        1.5999999959603883e-05,
        1.2000000424450263e-05
      ],
      "type": "VEC2"
    },
    {
      "bufferView": 0,
      "componentType": 5125,
      "count": 318483,
      "type": "SCALAR"
    },
    {
      "bufferView": 2,
      "byteOffset": 1572768,
      "componentType": 5126,
      "count": 41282,
      "max": [
        2.2847061157226563,
        10.857420921325684,
        0.5328519940376282
      ],
      "min": [
        -2.2959859371185303,
        7.808078765869141,
        -2.0346429347991943
      ],
      "type": "VEC3"
    },
    {
      "bufferView": 2,
      "byteOffset": 2068152,
      "componentType": 5126,
      "count": 41282,
      "max": [
        0.9999392032623291,
        0.9998660683631897,
        0.9999798536300659
      ],
      "min": [
        -0.9997401833534241,
        -0.9999673366546631,
        -0.999998927116394
      ],
      "type": "VEC3"
    },
    {
      "bufferView": 1,
      "byteOffset": 524256,
      "componentType": 5126,
      "count": 41282,
      "max": [
        1.0,
        0.999002993106842
      ],
      "min": [
        5.400000009103678e-05,
        7.999999979801942e-06
      ],
      "type": "VEC2"
    },
    {
      "bufferView": 0,
      "byteOffset": 1273932,
      "componentType": 5125,
      "count": 164889,
      "type": "SCALAR"
    },
    {
      "bufferView": 2,
      "byteOffset": 2563536,
      "componentType": 5126,
      "count": 65532,
      "max": [
        2.2096149921417236,
        10.380782127380371,
        0.6424710154533386
      ],
      "min": [
        -2.310621976852417,
        7.771636962890625,
        -1.9920029640197754
      ],
      "type": "VEC3"
    },
    {
      "bufferView": 2,
      "byteOffset": 3349920,
      "componentType": 5126,
      "count": 65532,
      "max": [
        0.9999971389770508,
        0.99996018409729,
        0.9999819993972778
      ],
      "min": [
        -0.9998896718025208,
        -0.9999862313270569,
        -0.9999657869338989
      ],
      "type": "VEC3"
    },
    {
      "bufferView": 1,
      "byteOffset": 854512,
      "componentType": 5126,
      "count": 65532,
      "max": [
        1.9999619722366333,
        0.9981819987297058
      ],
      "min": [
        1.000319004058838,
        0.0007409999961964786
      ],
      "type": "VEC2"
    },
    {
      "bufferView": 0,
      "byteOffset": 1933488,
      "componentType": 5125,
      "count": 327453,
      "type": "SCALAR"
    },
    {
      "bufferView": 2,
      "byteOffset": 4136304,
      "componentType": 5126,
      "count": 44828,
      "max": [
        2.29467511177063,
        10.87659740447998,
        0.6424710154533386
      ],
      "min": [
        -2.3416550159454346,
        7.766488075256348,
        -1.9945069551467896
      ],
      "type": "VEC3"
    },
    {
      "bufferView": 2,
      "byteOffset": 4674240,
      "componentType": 5126,
      "count": 44828,
      "max": [
        0.9999971389770508,
        0.9998454451560974,
        0.9999982118606567
      ],
      "min": [
        -0.9998763203620911,
        -0.9999364614486694,
        -0.999998927116394
      ],
      "type": "VEC3"
    },
    {
      "bufferView": 1,
      "byteOffset": 1378768,
      "componentType": 5126,
      "count": 44828,
      "max": [
        1.9999350309371948,
        0.9996820092201233
      ],
      "min": [
        1.000012993812561,
        9.600000339560211e-05
      ],
      "type": "VEC2"
    },
    {
      "bufferView": 0,
      "byteOffset": 3243300,
      "componentType": 5125,
      "count": 182349,
      "type": "SCALAR"
    },
    {
      "bufferView": 2,
      "byteOffset": 5212176,
      "componentType": 5126,
      "count": 65532,
      "max": [
        2.248836040496826,
        10.8125581741333,
        0.30082499980926514
      ],
      "min": [
        -2.309407949447632,
        7.8460869789123535,
        -2.004504919052124
      ],
      "type": "VEC3"
    },
    {
      "bufferView": 2,
      "byteOffset": 5998560,
      "componentType": 5126,
      "count": 65532,
      "max": [
        0.999936580657959,
        0.9999880790710449,
        0.9999613761901855
      ],
      "min": [
        -0.9998610019683838,
        -0.9997525215148926,
        -0.9999861121177673
      ],
      "type": "VEC3"
    },
    {
      "bufferView": 1,
      "byteOffset": 1737392,
      "componentType": 5126,
      "count": 65532,
      "max": [
        2.999711036682129,
        0.9999520182609558
      ],
      "min": [
        2.0000319480895996,
        9.999999974752427e-07
      ],
      "type": "VEC2"
    },
    {
      "bufferView": 0,
      "byteOffset": 3972696,
      "componentType": 5125,
      "count": 321594,
      "type": "SCALAR"
    },
    {
      "bufferView": 2,
      "byteOffset": 6784944,
      "componentType": 5126,
      "count": 45081,
      "max": [
        2.2147750854492188,
        10.912651062011719,
        0.6422320008277893
      ],
      "min": [
        -2.3440918922424316,
        7.872410774230957,
        -1.9867199659347534
      ],
      "type": "VEC3"
    },
    {
      "bufferView": 2,
      "byteOffset": 7325916,
      "componentType": 5126,
      "count": 45081,
      "max": [
        0.9999991059303284,
        0.9999880790710449,
        0.999950110912323
      ],
      "min": [
        -0.9999720454216003,
        -0.9999861717224121,
        -0.999955952167511
      ],
      "type": "VEC3"
    },
    {
      "bufferView": 1,
      "byteOffset": 2261648,
      "componentType": 5126,
      "count": 45081,
      "max": [
        2.999713897705078,
        0.9999439716339111
      ],
      "min": [
        2.000570058822632,
        1.8000000636675395e-05
      ],
      "type": "VEC2"
    },
    {
      "bufferView": 0,
      "byteOffset": 5259072,
      "componentType": 5125,
      "count": 185232,
      "type": "SCALAR"
    }
  ],
  "asset": {
    "extras": {
      "author": "Mikhail Volkov (https://sketchfab.com/mgv)",
      "license": "CC-BY-4.0 (http://creativecommons.org/licenses/by/4.0/)",
      "source": "https://sketchfab.com/3d-models/spasskaya-tower-of-moscow-kremlin-russia-0f1aaa45f39b4156ad28b6b83580251a",
      "title": "Spasskaya tower of Moscow Kremlin, Russia"
    },
    "generator": "Sketchfab-12.68.0",
    "version": "2.0"
  },
  "bufferViews": [
    {
      "buffer": 0,
      "byteLength": 6000000,
      "name": "floatBufferViews",
      "target": 34963
    },
    {
      "buffer": 0,
      "byteLength": 2622296,
      "byteOffset": 6000000,
      "byteStride": 8,
      "name": "floatBufferViews",
      "target": 34962
    },
    {
      "buffer": 0,
      "byteLength": 7866888,
      "byteOffset": 8622296,
      "byteStride": 12,
      "name": "floatBufferViews",
      "target": 34962
    }
  ],
  "buffers": [
    {
      "byteLength": 16489184,
      "uri": "scene.bin"
    }
  ],
  "extensionsUsed": [
    "KHR_materials_unlit"
  ],
  "images": [
    {
      "uri": "textures/Spasskaya-500k.1001_baseColor.jpeg"
    },
    {
      "uri": "textures/Spasskaya-500k.1002_baseColor.jpeg"
    },
    {
      "uri": "textures/Spasskaya-500k.1003_baseColor.jpeg"
    }
  ],
  "materials": [
    {
      "doubleSided": true,
      "extensions": {
        "KHR_materials_unlit": {}
      },
      "name": "Spasskaya-500k.1001",
      "pbrMetallicRoughness": {
        "baseColorTexture": {
          "index": 0
        },
        "metallicFactor": 0.0
      }
    },
    {
      "doubleSided": true,
      "extensions": {
        "KHR_materials_unlit": {}
      },
      "name": "Spasskaya-500k.1002",
      "pbrMetallicRoughness": {
        "baseColorTexture": {
          "index": 1
        },
        "metallicFactor": 0.0
      }
    },
    {
      "doubleSided": true,
      "extensions": {
        "KHR_materials_unlit": {}
      },
      "name": "Spasskaya-500k.1003",
      "pbrMetallicRoughness": {
        "baseColorTexture": {
          "index": 2
        },
        "metallicFactor": 0.0
      }
    }
  ],
  "meshes": [
    {
      "name": "Object_0",
      "primitives": [
        {
          "attributes": {
            "NORMAL": 1,
            "POSITION": 0,
            "TEXCOORD_0": 2
          },
          "indices": 3,
          "material": 0,
          "mode": 4
        }
      ]
    },
    {
      "name": "Object_1",
      "primitives": [
        {
          "attributes": {
            "NORMAL": 5,
            "POSITION": 4,
            "TEXCOORD_0": 6
          },
          "indices": 7,
          "material": 0,
          "mode": 4
        }
      ]
    },
    {
      "name": "Object_2",
      "primitives": [
        {
          "attributes": {
            "NORMAL": 9,
            "POSITION": 8,
            "TEXCOORD_0": 10
          },
          "indices": 11,
          "material": 1,
          "mode": 4
        }
      ]
    },
    {
      "name": "Object_3",
      "primitives": [
        {
          "attributes": {
            "NORMAL": 13,
            "POSITION": 12,
            "TEXCOORD_0": 14
          },
          "indices": 15,
          "material": 1,
          "mode": 4
        }
      ]
    },
    {
      "name": "Object_4",
      "primitives": [
        {
          "attributes": {
            "NORMAL": 17,
            "POSITION": 16,
            "TEXCOORD_0": 18
          },
          "indices": 19,
          "material": 2,
          "mode": 4
        }
      ]
    },
    {
      "name": "Object_5",
      "primitives": [
        {
          "attributes": {
            "NORMAL": 21,
            "POSITION": 20,
            "TEXCOORD_0": 22
          },
          "indices": 23,
          "material": 2,
          "mode": 4
        }
      ]
    }
  ],
  "nodes": [
    {
      "children": [
        1
      ],
      "matrix": [
        0.09959644824266434,
        0.9849881529808044,
        0.14099235832691215,
        0.0,
        -0.6007502675056458,
        0.1724816411733629,
        -0.7806082367897034,
        0.0,
        -0.7932084798812866,
        -0.006955385208130018,
        0.6089104413986206,
        0.0,
        5.032954216003418,
        -2.283760070800781,
        -1.6211557388305669,
        1.0
      ],
      "name": "Sketchfab_model"
    },
    {
      "children": [
        2,
        3,
        4,
        5,
        6,
        7
      ],
      "name": "Spasskaya-500k.obj.cleaner.materialmerger.gles"
    },
    {
      "mesh": 0,
      "name": "Object_2"
    },
    {
      "mesh": 1,
      "name": "Object_3"
    },
    {
      "mesh": 2,
      "name": "Object_4"
    },
    {
      "mesh": 3,
      "name": "Object_5"
    },
    {
      "mesh": 4,
      "name": "Object_6"
    },
    {
      "mesh": 5,
      "name": "Object_7"
    }
  ],
  "samplers": [
    {
      "magFilter": 9729,
      "minFilter": 9987,
      "wrapS": 10497,
      "wrapT": 10497
    }
  ],
  "scene": 0,
  "scenes": [
    {
      "name": "Sketchfab_Scene",
      "nodes": [
        0
      ]
    }
  ],
  "textures": [
    {
      "sampler": 0,
      "source": 0
    },
    {
      "sampler": 0,
      "source": 1
    },
    {
      "sampler": 0,
      "source": 2
    }
  ]
}
